<svg width="100%" height="auto" viewBox="0 0 113 117" fill="CurrentColor" xmlns="http://www.w3.org/2000/svg" color="#333">
<path fill-rule="evenodd" clip-rule="evenodd" d="M9.17017 50.5203C1.06109 41.9949 3.21673 31.3507 12.3594 20.5888C13.8261 18.8624 15.4725 17.133 17.2852 15.4088C15.7636 16.8561 15.6577 19.3651 16.2623 21.6638C16.6998 23.327 17.5093 24.8801 18.4237 25.8414C22.3624 29.9824 28.7536 28.9119 35.8709 27.7198C37.6286 27.4254 39.4305 27.1236 41.2508 26.8911C38.8603 23.0251 37.6355 18.6663 39.196 13.3757C42.5247 2.09025 52.8207 -1.36499 66.7121 1.17188C68.9405 1.57883 71.2614 2.13999 73.661 2.84775C71.6468 2.25365 69.421 3.41636 67.7326 5.08936C66.511 6.29982 65.5707 7.7774 65.1953 9.04997C63.5785 14.5315 67.7011 19.5312 72.2922 25.0989L72.2925 25.0993C73.4267 26.4749 74.5896 27.8851 75.7015 29.3458C77.8543 25.3416 81.0169 22.1004 86.3801 20.8063C97.8179 18.0463 105.958 25.2353 110.707 38.534C111.469 40.6674 112.143 42.9579 112.73 45.3899C112.237 43.3485 110.118 42.0022 107.824 41.3765C106.165 40.9238 104.416 40.8483 103.126 41.1595C97.5703 42.5 95.3018 48.5702 92.7755 55.33L92.7755 55.3301C92.0613 57.241 91.3266 59.2069 90.4912 61.1367C95.7946 61.2502 100.992 62.7122 105.449 67.3975C113.024 75.3615 109.961 84.8713 100.415 95.4156C98.9812 96.9995 97.4009 98.6068 95.6884 100.236C96.9619 99.0243 97.1555 96.6774 96.4818 94.297C96.0074 92.6208 95.103 90.9279 93.843 89.6031C89.3463 84.8756 82.7345 86.4975 75.659 88.2331C74.0569 88.6261 72.4309 89.025 70.8004 89.3572C73.2661 93.9452 74.5207 99.1024 72.7235 105.195C69.614 115.737 59.8469 117.84 45.9423 114.845C43.8536 114.395 41.6715 113.83 39.4045 113.161C41.0904 113.659 43.2196 112.653 44.9443 110.879C46.1588 109.63 47.1727 108.001 47.6899 106.247C49.5357 99.9891 44.8252 95.074 39.7844 89.8143C38.642 88.6223 37.4826 87.4125 36.3788 86.1655C33.6383 90.5943 29.7996 94.2589 23.6249 95.7488C12.9404 98.327 6.23594 90.9197 1.87742 77.3805C1.22268 75.3466 0.620887 73.1744 0.0664898 70.8768C0.478785 72.5855 2.41447 73.9265 4.81284 74.5333C6.50168 74.9606 8.41994 75.0238 10.1972 74.595C16.5397 73.0645 18.441 66.5275 20.4757 59.5322C20.8644 58.1957 21.258 56.8424 21.6884 55.5041C17.2214 55.5999 12.9121 54.4543 9.17017 50.5203ZM25.6588 55.137C25.2335 56.3452 24.8333 57.6285 24.4346 58.9771C24.2882 59.4724 24.141 59.98 23.9913 60.4962C23.0623 63.6991 22.0384 67.2297 20.5257 70.1616C18.6771 73.7446 15.8349 76.9832 11.052 78.1373C9.41579 78.5321 7.71757 78.6171 6.09241 78.4495C7.68547 82.85 9.51213 86.2577 11.577 88.6288C13.1487 90.4335 14.7885 91.5567 16.5094 92.1308C18.2204 92.7017 20.2585 92.8126 22.7701 92.2065C28.1813 90.9008 31.4475 87.5811 33.9213 83.1561C30.718 78.8155 28.7333 73.9025 30.5583 67.715C33.2836 58.4756 40.6788 54.4846 50.8937 54.7333C46.4026 50.273 39.8868 51.8714 32.9217 53.5799C30.5324 54.166 28.0903 54.7651 25.6588 55.137ZM51.4395 50.4907C48.5368 48.5576 45.2584 48.0726 42.1021 48.2219C38.8066 48.3778 35.2371 49.2563 31.9988 50.0533L31.9987 50.0534C31.4769 50.1818 30.9637 50.3081 30.4616 50.4289C29.3863 50.6877 28.3457 50.9254 27.3379 51.1298C29.1697 47.5505 31.6647 45.0462 35.8559 44.0349C41.2441 42.7347 45.4835 44.102 48.9997 47.5778C49.849 48.4174 50.6637 49.3893 51.4395 50.4907ZM62.556 54.621C68.1223 52.678 69.9287 46.4673 71.8546 39.846C72.5027 37.6177 73.1643 35.343 73.9873 33.1688C73.1414 31.9707 72.2133 30.7723 71.2338 29.5586C70.7071 28.9059 70.1557 28.2377 69.595 27.5583L69.5949 27.5582C67.5641 25.0973 65.4117 22.489 63.8719 19.9373C61.838 16.5664 60.3716 12.5234 61.7002 8.01906C62.0671 6.77499 62.7276 5.51896 63.5668 4.36547C59.1839 3.79459 55.41 3.95112 52.3313 4.79516C47.5631 6.10241 44.2592 9.09021 42.6911 14.4066C41.3286 19.0258 42.6376 22.7437 45.3936 26.5157C51.502 26.2347 57.5954 27.3653 62.7116 32.7443C68.7858 39.1304 68.02 46.5106 62.556 54.621ZM48.4147 30.1526C52.773 30.3665 56.684 31.6945 60.0713 35.2557C61.8519 37.1278 62.7749 38.9483 63.1361 40.7155C63.4994 42.4929 63.3465 44.4746 62.5694 46.7381C62.035 48.2947 61.222 49.9368 60.1361 51.6618C60.9553 47.4799 59.6321 43.829 57.6524 40.7463C55.8697 37.9704 53.3241 35.3183 51.0148 32.9124L51.0147 32.9123C50.6425 32.5246 50.2765 32.1433 49.9208 31.7688C49.4012 31.2219 48.8981 30.6839 48.4147 30.1526ZM43.704 30.2871C45.1759 32.0878 46.8158 33.7988 48.4221 35.4749C53.383 40.6512 58.024 45.4938 56.4105 51.611C51.5184 42.6414 44.3648 38.2331 35.0012 40.4926C28.4542 42.0723 25.1864 46.5536 23.0317 51.7826C18.6594 52.1537 14.9816 51.3429 11.8105 48.0089C7.99047 43.9927 7.05488 39.6376 8.3069 34.8546C9.11529 31.7663 10.8667 28.4198 13.5525 24.9095C14.1319 26.213 14.8894 27.413 15.7833 28.3528C19.0199 31.7556 23.2544 32.5072 27.1906 32.4311C30.1705 32.3736 33.5056 31.8136 36.6522 31.2853C37.5209 31.1395 38.3753 30.996 39.2039 30.8662C40.7436 30.625 42.2444 30.4205 43.704 30.2871ZM88.3841 56.6433C87.7593 58.2629 87.1191 59.818 86.4242 61.2819C83.7788 61.507 81.1474 61.9477 78.6085 62.373L78.6082 62.373C72.2693 63.4348 66.5064 64.4 62.539 61.673C72.1867 62.2942 78.885 59.2511 81.3612 50.8559C83.4611 43.7368 81.3946 37.8952 78.098 32.7464C79.9868 28.4721 82.5521 25.4785 87.2348 24.3486C92.623 23.0484 96.8624 24.4158 100.379 27.8916C102.649 30.1358 104.671 33.3258 106.368 37.4069C104.95 37.2569 103.532 37.3129 102.271 37.6172C97.7059 38.7187 94.9378 42.0102 93.0355 45.4571C91.5954 48.0664 90.4128 51.2348 89.297 54.2239C88.989 55.0492 88.686 55.8608 88.3841 56.6433ZM69.9279 67.0843C66.4961 67.1506 62.8374 66.5878 59.8111 64.1873C60.79 66.0715 61.8381 67.6589 62.9559 68.9425C64.5276 70.7472 66.1674 71.8704 67.8883 72.4446C69.5993 73.0154 71.6374 73.1263 74.149 72.5202C78.8363 71.3892 81.9141 68.747 84.2616 65.1842C83.4984 65.2834 82.7248 65.3967 81.9412 65.5194C81.1126 65.6492 80.2583 65.7927 79.3895 65.9385C76.2429 66.4668 72.9078 67.0268 69.9279 67.0843ZM41.3966 75.0163C43.7736 68.6559 45.9224 62.9061 50.7959 61.1321C45.5087 69.8325 45.2839 78.2098 51.9075 85.1735C56.3546 89.849 61.6033 90.5859 66.9657 89.9812C69.5612 94.3363 70.8033 98.825 69.2284 104.164C68.4975 106.642 67.3824 108.352 66.0325 109.548C64.6748 110.752 62.8822 111.61 60.5334 112.069C57.4476 112.672 53.5831 112.55 48.9756 111.729C49.9334 110.406 50.7088 108.892 51.185 107.278C52.577 102.559 51.1934 98.4781 49.0147 95.0857C47.232 92.3097 44.6864 89.6576 42.377 87.2516L42.3769 87.2515L42.3768 87.2514L42.3766 87.2512L42.3765 87.2511C42.0045 86.8636 41.6387 86.4825 41.2832 86.1082C40.1851 84.9524 39.1609 83.8369 38.2397 82.739C39.4552 80.211 40.4442 77.5647 41.3966 75.0163ZM54.5478 82.6621C57.4381 85.7008 60.7493 86.6435 64.6236 86.5056C63.9822 85.6406 63.3025 84.7733 62.5961 83.8979C62.0694 83.2453 61.518 82.5771 60.9573 81.8977C58.9265 79.4368 56.774 76.8284 55.2342 74.2766C53.6841 71.7076 52.4636 68.7482 52.5589 65.4917C51.8884 66.8712 51.3833 68.2122 51.0442 69.5078C49.7922 74.2908 50.7278 78.6459 54.5478 82.6621ZM63.6545 79.4383C65.385 81.5369 67.182 83.7163 68.7633 86.0325C70.1735 85.7838 71.6503 85.4548 73.1989 85.0821C73.7008 84.9613 74.2139 84.8351 74.7356 84.7067L74.736 84.7066C77.9744 83.9095 81.5439 83.031 84.8394 82.8751C88.8666 82.6846 93.0924 83.5267 96.4833 87.0917C97.6434 88.3113 98.5661 89.7395 99.2335 91.2307C102.248 87.6509 104.286 84.3651 105.307 81.3913C106.084 79.1278 106.237 77.1461 105.873 75.3687C105.512 73.6015 104.589 71.781 102.809 69.9089C98.8058 65.7005 94.0717 64.6108 88.7322 64.7929C85.9366 69.9622 81.9469 74.3872 75.0038 76.0626C66.496 78.1155 60.5118 73.8371 56.2261 65.173C55.8487 69.9719 59.5659 74.4799 63.6545 79.4383ZM76.459 37.182C78.4517 41.0623 79.2562 45.1123 77.8661 49.825C77.1352 52.3031 76.0201 54.0127 74.6702 55.2091C73.3125 56.4124 71.5199 57.2709 69.1711 57.7297C67.5564 58.0451 65.7285 58.162 63.6925 58.0843C67.7242 56.703 70.2247 53.7313 71.9046 50.4754C73.4173 47.5434 74.4412 44.0129 75.3702 40.8099C75.5199 40.2937 75.6671 39.7861 75.8135 39.2909C76.027 38.5686 76.241 37.8652 76.459 37.182ZM34.0534 68.7459C32.8674 72.7668 33.7056 76.1047 35.7604 79.3898C36.1889 78.4017 36.6003 77.3792 37.0052 76.3296C37.3071 75.5471 37.6101 74.7355 37.9181 73.9102C39.0339 70.921 40.2165 67.7527 41.6566 65.1433C43.1048 62.5193 45.0548 59.9853 47.9174 58.439C46.392 58.5485 44.9819 58.7813 43.6936 59.1345C38.9254 60.4418 35.6215 63.4296 34.0534 68.7459Z"></path>
</svg>